<svg width="63" height="71" viewBox="0 0 63 71" fill="none" xmlns="http://www.w3.org/2000/svg">
<path fill-rule="evenodd" clip-rule="evenodd" d="M62.4879 15.2361C44.1206 20.0025 27.8285 28.4351 14.7447 42.6596C18.0446 46.2747 21.8186 47.3836 26.297 48.2297C35.9152 38.1908 47.7054 31.8145 60.9817 27.9435C64.2438 26.9911 62.598 18.204 62.4879 15.2361Z" fill="#FF7324"/>
<path fill-rule="evenodd" clip-rule="evenodd" d="M14.2648 15.8626C0.624516 23.8898 -4.04958 41.6743 3.82482 55.5769C7.89089 62.7548 14.5092 67.497 21.8356 69.2993C43.9425 74.7276 62.4171 50.6936 61.6356 29.6054C49.0754 33.4073 38.1591 39.6305 29.2279 48.7757C55.4676 53.3852 31.8169 72.246 15.0063 60.6643C2.94822 52.3565 1.54115 36.7689 8.393 25.1064C12.6025 17.9404 18.4952 15.2054 25.6023 12.1151C21.7222 12.5198 17.8605 13.7457 14.2648 15.8626Z" fill="#FF7324"/>
<path fill-rule="evenodd" clip-rule="evenodd" d="M62.3756 0.0769043C38.1101 7.72146 11.8882 14.6394 10.3764 30.7267C10.0404 33.1172 10.5343 35.7259 12.1648 38.6067C12.6871 39.5286 13.2203 40.3532 13.7668 41.096C26.2289 26.6904 42.1532 18.1385 61.0719 13.2169C64.3437 12.3658 62.4859 3.05234 62.3756 0.0769043Z" fill="#FF7324"/>
</svg>
