<?xml version="1.0" encoding="iso-8859-1"?>
<!-- Uploaded to: SVG Repo, www.svgrepo.com, Generator: SVG Repo Mixer Tools -->
<svg fill="#000000" height="800px" width="800px" version="1.1" id="Layer_1" xmlns="http://www.w3.org/2000/svg" xmlns:xlink="http://www.w3.org/1999/xlink" 
	 viewBox="0 0 511.35 511.35" xml:space="preserve">
<g>
	<g>
		<g>
			<path d="M119.472,104.48c-1.003-3.285-3.605-5.845-6.891-6.805c-3.349-0.981-6.891-0.171-9.493,2.069
				C51.248,144.374,21.51,209.056,21.51,277.152c0,91.733,54.144,175.488,137.963,213.333c1.344,0.597,2.752,0.896,4.181,0.896
				c1.472,0,2.944-0.32,4.331-0.96c2.688-1.259,4.693-3.627,5.483-6.507c16.341-58.923,16.469-180.907,0.064-221.931
				C149.68,200.054,130.971,142.155,119.472,104.48z"/>
			<path d="M343.238,482.336C248.24,279.499,380.763,60.939,382.128,58.763c1.664-2.688,2.048-5.952,1.045-8.939
				c-0.981-3.008-3.243-5.397-6.165-6.571L270.342,0.587c-0.427-0.171-0.853-0.128-1.301-0.235
				c-0.555-0.149-1.045-0.235-1.621-0.299c-1.216-0.128-2.368-0.021-3.52,0.256c-0.299,0.064-0.619-0.043-0.896,0.064l-128,42.667
				c-5.419,1.792-8.448,7.509-6.912,12.992c0,0,3.008,10.688,8.149,28.544c12.267,41.024,33.835,108.907,61.653,180.075
				c15.936,55.253,12.181,173.291-3.52,227.477c-0.768,2.667-0.427,5.568,0.981,7.979c1.408,2.411,3.733,4.139,6.464,4.779
				c18.176,4.288,36.309,6.464,53.867,6.464c2.539,0,5.056-0.149,7.552-0.341l3.584-0.213c0.021,0,0.021,0,0.043-0.021
				c31.232-0.107,56.107-8.597,66.133-12.629c0.619-0.128,1.365-0.107,1.92-0.32c1.088-0.405,2.112-0.832,3.093-1.28
				c0.021,0,0.043,0,0.064-0.021c0.021,0,0.021-0.021,0.043-0.021c0.064-0.021,0.128-0.043,0.171-0.064
				c0.704-0.363,1.237-0.939,1.856-1.429c0.448-0.363,1.003-0.64,1.387-1.067c0.363-0.427,0.555-0.96,0.853-1.429
				c0.448-0.704,0.939-1.365,1.216-2.133c0.021-0.043,0.043-0.064,0.064-0.107c0.171-0.533,0.107-1.067,0.213-1.6
				c0.128-0.832,0.341-1.6,0.299-2.389c-0.043-0.832-0.341-1.6-0.597-2.411C343.43,483.36,343.43,482.848,343.238,482.336z
				 M274.032,54.091c0.555-11.712,1.195-21.227,1.728-28.352l81.963,32.789c-17.301,31.893-64.661,129.707-69.376,246.315
				C270.811,202.763,271.792,104.416,274.032,54.091z M276.038,490.016c-0.832-13.931-3.221-41.067-9.835-76.459
				c14.571,26.304,29.845,50.176,45.632,70.251C302.598,486.475,290.203,489.099,276.038,490.016z"/>
			<path d="M401.584,94.155c-2.411-1.92-5.589-2.645-8.597-1.984c-3.008,0.683-5.547,2.688-6.912,5.461
				c-30.485,62.464-93.739,224.021-23.317,374.976c1.237,2.624,3.52,4.608,6.272,5.44c0.96,0.299,1.963,0.427,2.944,0.427
				c1.856,0,3.691-0.491,5.312-1.472c70.485-42.987,112.555-117.696,112.555-199.872
				C489.862,205.622,457.691,138.934,401.584,94.155z"/>
		</g>
	</g>
</g>
</svg>